<svg width="114" height="14" viewBox="0 0 114 14" fill="none" xmlns="http://www.w3.org/2000/svg">
<path d="M7.074 13.5366C5.838 13.5366 4.746 13.2606 3.798 12.7086C2.862 12.1566 2.124 11.4006 1.584 10.4406C1.056 9.46859 0.792 8.35259 0.792 7.09259C0.792 5.84459 1.056 4.74059 1.584 3.78059C2.124 2.80859 2.862 2.05259 3.798 1.51259C4.746 0.960588 5.838 0.684589 7.074 0.684589C8.322 0.684589 9.414 0.960588 10.35 1.51259C11.298 2.05259 12.036 2.80859 12.564 3.78059C13.092 4.74059 13.356 5.84459 13.356 7.09259C13.356 8.35259 13.092 9.46859 12.564 10.4406C12.036 11.4006 11.298 12.1566 10.35 12.7086C9.414 13.2606 8.322 13.5366 7.074 13.5366ZM7.074 12.6906C8.19 12.6906 9.15 12.4566 9.954 11.9886C10.758 11.5206 11.376 10.8666 11.808 10.0266C12.252 9.18659 12.474 8.20859 12.474 7.09259C12.474 5.97659 12.252 4.99859 11.808 4.15859C11.376 3.31859 10.758 2.67059 9.954 2.21459C9.15 1.74659 8.19 1.51259 7.074 1.51259C5.97 1.51259 5.016 1.74659 4.212 2.21459C3.408 2.67059 2.784 3.31859 2.34 4.15859C1.908 4.99859 1.692 5.97659 1.692 7.09259C1.692 8.20859 1.908 9.18659 2.34 10.0266C2.784 10.8666 3.408 11.5206 4.212 11.9886C5.016 12.4566 5.97 12.6906 7.074 12.6906ZM7.092 11.2146C6.348 11.2146 5.676 11.0526 5.076 10.7286C4.476 10.3926 4.002 9.91859 3.654 9.30659C3.318 8.68259 3.15 7.94459 3.15 7.09259C3.15 6.24059 3.318 5.50859 3.654 4.89659C4.002 4.28459 4.476 3.81059 5.076 3.47459C5.676 3.13859 6.348 2.97059 7.092 2.97059C8.016 2.97059 8.814 3.22259 9.486 3.72659C10.17 4.23059 10.614 4.93259 10.818 5.83259H8.802C8.67 5.43659 8.448 5.13059 8.136 4.91459C7.836 4.68659 7.47 4.57259 7.038 4.57259C6.474 4.57259 6 4.78259 5.616 5.20259C5.244 5.62259 5.058 6.25259 5.058 7.09259C5.058 7.93259 5.244 8.56859 5.616 9.00059C6 9.42059 6.474 9.63059 7.038 9.63059C7.494 9.63059 7.866 9.51659 8.154 9.28859C8.442 9.06059 8.658 8.75459 8.802 8.37059H10.818C10.614 9.23459 10.17 9.92459 9.486 10.4406C8.814 10.9566 8.016 11.2146 7.092 11.2146ZM19.3575 13.4286V11.7546C20.1255 11.1186 20.8695 10.4886 21.5895 9.86459C22.3215 9.24059 22.9695 8.62259 23.5335 8.01059C24.1095 7.39859 24.5655 6.80459 24.9015 6.22859C25.2495 5.64059 25.4235 5.07059 25.4235 4.51859C25.4235 4.00259 25.2795 3.54659 24.9915 3.15059C24.7155 2.75459 24.2535 2.55659 23.6055 2.55659C22.9455 2.55659 22.4475 2.77259 22.1115 3.20459C21.7755 3.63659 21.6075 4.15859 21.6075 4.77059H19.3755C19.3995 3.84659 19.6035 3.07859 19.9875 2.46659C20.3715 1.84259 20.8815 1.38059 21.5175 1.08059C22.1535 0.768588 22.8675 0.612589 23.6595 0.612589C24.9435 0.612589 25.9395 0.966588 26.6475 1.67459C27.3675 2.37059 27.7275 3.27659 27.7275 4.39259C27.7275 5.08859 27.5655 5.76659 27.2415 6.42659C26.9295 7.08659 26.5155 7.72259 25.9995 8.33459C25.4835 8.94659 24.9255 9.52259 24.3255 10.0626C23.7255 10.5906 23.1435 11.0826 22.5795 11.5386H28.0335V13.4286H19.3575ZM35.0248 13.6446C33.8608 13.6446 32.8648 13.3746 32.0368 12.8346C31.2088 12.2826 30.5668 11.5206 30.1108 10.5486C29.6668 9.56459 29.4448 8.42459 29.4448 7.12859C29.4448 5.84459 29.6668 4.71059 30.1108 3.72659C30.5668 2.74259 31.2088 1.98059 32.0368 1.44059C32.8648 0.888589 33.8608 0.612589 35.0248 0.612589C36.1888 0.612589 37.1848 0.888589 38.0128 1.44059C38.8408 1.98059 39.4768 2.74259 39.9208 3.72659C40.3768 4.71059 40.6048 5.84459 40.6048 7.12859C40.6048 8.42459 40.3768 9.56459 39.9208 10.5486C39.4768 11.5206 38.8408 12.2826 38.0128 12.8346C37.1848 13.3746 36.1888 13.6446 35.0248 13.6446ZM35.0248 11.5746C35.9728 11.5746 36.7468 11.1786 37.3468 10.3866C37.9468 9.59459 38.2468 8.50859 38.2468 7.12859C38.2468 5.74859 37.9468 4.66259 37.3468 3.87059C36.7468 3.07859 35.9728 2.68259 35.0248 2.68259C34.0648 2.68259 33.2848 3.07859 32.6848 3.87059C32.0968 4.66259 31.8028 5.74859 31.8028 7.12859C31.8028 8.50859 32.0968 9.59459 32.6848 10.3866C33.2848 11.1786 34.0648 11.5746 35.0248 11.5746ZM42.2442 13.4286V11.7546C43.0122 11.1186 43.7562 10.4886 44.4762 9.86459C45.2082 9.24059 45.8562 8.62259 46.4202 8.01059C46.9962 7.39859 47.4522 6.80459 47.7882 6.22859C48.1362 5.64059 48.3102 5.07059 48.3102 4.51859C48.3102 4.00259 48.1662 3.54659 47.8782 3.15059C47.6022 2.75459 47.1402 2.55659 46.4922 2.55659C45.8322 2.55659 45.3342 2.77259 44.9982 3.20459C44.6622 3.63659 44.4942 4.15859 44.4942 4.77059H42.2622C42.2862 3.84659 42.4902 3.07859 42.8742 2.46659C43.2582 1.84259 43.7682 1.38059 44.4042 1.08059C45.0402 0.768588 45.7542 0.612589 46.5462 0.612589C47.8302 0.612589 48.8262 0.966588 49.5342 1.67459C50.2542 2.37059 50.6142 3.27659 50.6142 4.39259C50.6142 5.08859 50.4522 5.76659 50.1282 6.42659C49.8162 7.08659 49.4022 7.72259 48.8862 8.33459C48.3702 8.94659 47.8122 9.52259 47.2122 10.0626C46.6122 10.5906 46.0302 11.0826 45.4662 11.5386H50.9202V13.4286H42.2442ZM54.2014 13.4286V3.45659L52.1314 3.94259V2.17859L55.1734 0.828588H56.5954V13.4286H54.2014ZM63.3275 13.4286V0.828588H66.0635L70.0775 8.82059L74.0375 0.828588H76.7735V13.4286H74.4695V4.73459L70.9595 11.6286H69.1415L65.6315 4.73459V13.4286H63.3275ZM83.4481 13.6446C82.5841 13.6446 81.8041 13.4466 81.1081 13.0506C80.4241 12.6546 79.8781 12.1086 79.4701 11.4126C79.0741 10.7046 78.8761 9.88859 78.8761 8.96459C78.8761 8.04059 79.0801 7.23059 79.4881 6.53459C79.8961 5.82659 80.4421 5.27459 81.1261 4.87859C81.8221 4.48259 82.6021 4.28459 83.4661 4.28459C84.3181 4.28459 85.0861 4.48259 85.7701 4.87859C86.4661 5.27459 87.0121 5.82659 87.4081 6.53459C87.8161 7.23059 88.0201 8.04059 88.0201 8.96459C88.0201 9.88859 87.8161 10.7046 87.4081 11.4126C87.0121 12.1086 86.4661 12.6546 85.7701 13.0506C85.0741 13.4466 84.3001 13.6446 83.4481 13.6446ZM83.4481 11.6466C84.0481 11.6466 84.5701 11.4246 85.0141 10.9806C85.4581 10.5246 85.6801 9.85259 85.6801 8.96459C85.6801 8.07659 85.4581 7.41059 85.0141 6.96659C84.5701 6.51059 84.0541 6.28259 83.4661 6.28259C82.8541 6.28259 82.3261 6.51059 81.8821 6.96659C81.4501 7.41059 81.2341 8.07659 81.2341 8.96459C81.2341 9.85259 81.4501 10.5246 81.8821 10.9806C82.3261 11.4246 82.8481 11.6466 83.4481 11.6466ZM92.0527 13.4286L88.7767 4.50059H91.1887L93.4567 11.2506L95.7247 4.50059H98.1367L94.8427 13.4286H92.0527ZM100.832 3.11459C100.412 3.11459 100.064 2.98859 99.7879 2.73659C99.5239 2.48459 99.3919 2.16659 99.3919 1.78259C99.3919 1.39859 99.5239 1.08659 99.7879 0.846588C100.064 0.594588 100.412 0.468588 100.832 0.468588C101.252 0.468588 101.594 0.594588 101.858 0.846588C102.134 1.08659 102.272 1.39859 102.272 1.78259C102.272 2.16659 102.134 2.48459 101.858 2.73659C101.594 2.98859 101.252 3.11459 100.832 3.11459ZM99.6799 13.4286V4.50059H101.984V13.4286H99.6799ZM103.543 13.4286L106.783 8.96459L103.543 4.50059H106.009L108.277 7.66859L110.527 4.50059H113.011L109.753 8.96459L113.011 13.4286H110.527L108.277 10.2606L106.009 13.4286H103.543Z" fill="#6B7280"/>
</svg>
